# xmcd
#
# Track frame offsets: 
#        150
#        19153
#        36461
#        50758
#        62168
#        80455
#        95952
#        109843
#        130837
#        150937
#        168689
#        186129
#        203152
#
# Disc length: 2908 seconds
#
# Revision: 0
# Processed by: cddbd v1.5.2PL0 Copyright (c) Steve Scherf et al.
# Submitted via: ExactAudioCopyFreeDBPlugin 1.0
#
DISCID=b70b5a0d
DTITLE=Diana White and Chris Whiteley - Scrap Metal Blues
DYEAR=2013
DGENRE=Blues
TTITLE0=Rockin' Nubian
TTITLE1=West Virginia Bound
TTITLE2=Scrap Metal Blues
TTITLE3=Hold Me Tight
TTITLE4=Hawaii Blues
TTITLE5=Boogie Train
TTITLE6=Johnny To The Fair Blues
TTITLE7=Fine Cars And Lots Of Money
TTITLE8=Big Show
TTITLE9=Sit Down On The Back Porch
TTITLE10=Wellington County
TTITLE11=Blues Suite
TTITLE12=Manitoba Flood
EXTD=
EXTT0=
EXTT1=
EXTT2=
EXTT3=
EXTT4=
EXTT5=
EXTT6=
EXTT7=
EXTT8=
EXTT9=
EXTT10=
EXTT11=
EXTT12=
PLAYORDER=
